{"title":"Wkreceni.2014.Polish.PL.480p.BRRip.XviD.AC3-N3kr4","uid":10328009,"size":2071409584,"categoryP":"video","categoryS":"hd___movies","magnet":"?xt=urn:btih:26b16ddc57c209cec9ffb551237ca34b8177aed5&amp;dn=Wkreceni.2014.Polish.PL.480p.BRRip.XviD.AC3-N3kr4&amp;tr=udp%3A%2F%2Ftracker.openbittorrent.com%3A80&amp;tr=udp%3A%2F%2Fopen.demonii.com%3A1337&amp;tr=udp%3A%2F%2Ftracker.coppersurfer.tk%3A6969&amp;tr=udp%3A%2F%2Fexodus.desync.com%3A6969","seeders":13,"leechers":3,"uploader":"Falcon.G13","files":2,"time":1402378304,"description":" &lt;a href=&quot;http://www.imdb.com/title/tt3482696/&quot; rel=&quot;nofollow&quot; target=&quot;_NEW&quot;&gt;http://www.imdb.com/title/tt3482696/&lt;/a&gt;\n &lt;a href=&quot;\nhttp://i.imgur.com/fdPnpcz.jpg&quot; rel=&quot;nofollow&quot; target=&quot;_NEW&quot;&gt;\nhttp://i.imgur.com/fdPnpcz.jpg&lt;/a&gt; &lt;a href=&quot;\nhttp://i.imgur.com/lCSIq6t.jpg&quot; rel=&quot;nofollow&quot; target=&quot;_NEW&quot;&gt;\nhttp://i.imgur.com/lCSIq6t.jpg&lt;/a&gt; &lt;a href=&quot;\nhttp://i.imgur.com/52r2JjD.jpg&quot; rel=&quot;nofollow&quot; target=&quot;_NEW&quot;&gt;\nhttp://i.imgur.com/52r2JjD.jpg&lt;/a&gt; &lt;a href=&quot;\nhttp://i.imgur.com/pobiyDv.jpg&quot; rel=&quot;nofollow&quot; target=&quot;_NEW&quot;&gt;\nhttp://i.imgur.com/pobiyDv.jpg&lt;/a&gt; &lt;a href=&quot;\nhttp://i.imgur.com/8AKIaZs.jpg&quot; rel=&quot;nofollow&quot; target=&quot;_NEW&quot;&gt;\nhttp://i.imgur.com/8AKIaZs.jpg&lt;/a&gt; &lt;a href=&quot;\nhttp://i.imgur.com/iMFdLel.jpg&quot; rel=&quot;nofollow&quot; target=&quot;_NEW&quot;&gt;\nhttp://i.imgur.com/iMFdLel.jpg&lt;/a&gt; &lt;a href=&quot;\nhttp://i.imgur.com/1FVnr82.jpg&quot; rel=&quot;nofollow&quot; target=&quot;_NEW&quot;&gt;\nhttp://i.imgur.com/1FVnr82.jpg&lt;/a&gt; &lt;a href=&quot;\nhttp://i.imgur.com/lslVpvY.jpg&quot; rel=&quot;nofollow&quot; target=&quot;_NEW&quot;&gt;\nhttp://i.imgur.com/lslVpvY.jpg&lt;/a&gt; &lt;a href=&quot;\nhttp://i.imgur.com/tGb9SoA.jpg&quot; rel=&quot;nofollow&quot; target=&quot;_NEW&quot;&gt;\nhttp://i.imgur.com/tGb9SoA.jpg&lt;/a&gt; &lt;a href=&quot;\nhttp://i.imgur.com/km96VKo.jpg&quot; rel=&quot;nofollow&quot; target=&quot;_NEW&quot;&gt;\nhttp://i.imgur.com/km96VKo.jpg&lt;/a&gt; &lt;a href=&quot;\nhttp://i.imgur.com/KRGPt7i.jpg&quot; rel=&quot;nofollow&quot; target=&quot;_NEW&quot;&gt;\nhttp://i.imgur.com/KRGPt7i.jpg&lt;/a&gt;\n\nGeneral\nComplete name : Wkreceni.2014.PL.480p.BRRip.XviD.AC3-N3kr4.avi\nFormat : AVI\nFormat/Info : Audio Video Interleave\nFormat profile : OpenDML\nFile size : 1.93 GiB\nDuration : 1h 39mn\nOverall bit rate : 2 768 Kbps\nWriting application : Lavf55.7.100\n\nVideo\nID : 0\nFormat : MPEG-4 Visual\nFormat profile : Advanced Simple@L1\nFormat settings, BVOP : No\nFormat settings, QPel : No\nFormat settings, GMC : No warppoints\nFormat settings, Matrix : Default (H.263)\nCodec ID : XVID\nCodec ID/Hint : XviD\nDuration : 1h 39mn\nBit rate : 2 117 Kbps\nWidth : 720 pixels\nHeight : 400 pixels\nDisplay aspect ratio : 16:9\nFrame rate : 24.000 fps\nColor space : YUV\nChroma subsampling : 4:2:0\nBit depth : 8 bits\nScan type : Progressive\nCompression mode : Lossy\nBits/(Pixel*Frame) : 0.306\nStream size : 1.48 GiB (76%)\nWriting library : Lavc55.12.100\n\nAudio\nID : 1\nFormat : AC-3\nFormat/Info : Audio Coding 3\nMode extension : CM (complete main)\nFormat settings, Endianness : Big\nCodec ID : 2000\nDuration : 1h 39mn\nBit rate mode : Constant\nBit rate : 640 Kbps\nChannel(s) : 6 channels\nChannel positions : Front: L C R, Side: L R, LFE\nSampling rate : 48.0 KHz\nBit depth : 16 bits\nCompression mode : Lossy\nStream size : 457 MiB (23%)\nAlignment : Aligned on interleaves\nInterleave, duration : 32 ms (0.77 video frame)\nInterleave, preload duration : 32 ms\n","torrent":{"xt":"urn:btih:26b16ddc57c209cec9ffb551237ca34b8177aed5","amp;dn":"Wkreceni.2014.Polish.PL.480p.BRRip.XviD.AC3-N3kr4","amp;tr":["udp%3A%2F%2Ftracker.openbittorrent.com%3A80","udp%3A%2F%2Fopen.demonii.com%3A1337","udp%3A%2F%2Ftracker.coppersurfer.tk%3A6969","udp%3A%2F%2Fexodus.desync.com%3A6969"],"infoHash":"26b16ddc57c209cec9ffb551237ca34b8177aed5","infoHashBuffer":{"type":"Buffer","data":[38,177,109,220,87,194,9,206,201,255,181,81,35,124,163,75,129,119,174,213]},"announce":[],"urlList":[]}}